<?xml version="1.0" encoding="UTF-8" standalone="no"?>
<!DOCTYPE svg PUBLIC "-//W3C//DTD SVG 1.1//EN"
 "http://www.w3.org/Graphics/SVG/1.1/DTD/svg11.dtd">
<!-- Generated by graphviz version 2.43.0 (0)
 -->
<!-- Title: undefined Pages: 1 -->
<svg width="1559pt" height="1331pt"
 viewBox="0.00 0.00 1558.60 1330.60" xmlns="http://www.w3.org/2000/svg" xmlns:xlink="http://www.w3.org/1999/xlink">
<g id="graph0" class="graph" transform="scale(1 1) rotate(0) translate(28.8 1280.8)">
<title>undefined</title>
<polygon fill="white" stroke="transparent" points="-28.8,49.8 -28.8,-1280.8 1529.8,-1280.8 1529.8,49.8 -28.8,49.8"/>
<text text-anchor="start" x="717" y="12.6" font-family="Helvetica,sans-Serif" font-weight="bold" font-size="12.00">db.sqlite3</text>
<!-- migrations -->
<g id="node1" class="node">
<title>migrations</title>
<path fill="none" stroke="black" d="M1167.24,-1050.64C1167.24,-1050.64 1287.24,-1050.64 1287.24,-1050.64 1293.24,-1050.64 1299.24,-1056.64 1299.24,-1062.64 1299.24,-1062.64 1299.24,-1108.64 1299.24,-1108.64 1299.24,-1114.64 1293.24,-1120.64 1287.24,-1120.64 1287.24,-1120.64 1167.24,-1120.64 1167.24,-1120.64 1161.24,-1120.64 1155.24,-1114.64 1155.24,-1108.64 1155.24,-1108.64 1155.24,-1062.64 1155.24,-1062.64 1155.24,-1056.64 1161.24,-1050.64 1167.24,-1050.64"/>
<text text-anchor="start" x="1188.24" y="-1100.24" font-family="Helvetica,sans-Serif" font-weight="bold" font-size="13.00">migrations</text>
<polyline fill="none" stroke="black" points="1155.24,-1090.64 1299.24,-1090.64 "/>
<text text-anchor="start" x="1162.24" y="-1077.04" font-family="Helvetica,sans-Serif" font-size="12.00">id* </text>
<text text-anchor="start" x="1183.24" y="-1077.04" font-family="Helvetica,sans-Serif" font-weight="bold" font-size="12.00">integer</text>
<text text-anchor="start" x="1162.24" y="-1060.04" font-family="Helvetica,sans-Serif" font-size="12.00">version </text>
<text text-anchor="start" x="1210.24" y="-1060.04" font-family="Helvetica,sans-Serif" font-weight="bold" font-size="12.00">integer</text>
</g>
<!-- msgs -->
<g id="node2" class="node">
<title>msgs</title>
<path fill="none" stroke="black" d="M742.89,-483.92C742.89,-483.92 886.89,-483.92 886.89,-483.92 892.89,-483.92 898.89,-489.92 898.89,-495.92 898.89,-495.92 898.89,-660.92 898.89,-660.92 898.89,-666.92 892.89,-672.92 886.89,-672.92 886.89,-672.92 742.89,-672.92 742.89,-672.92 736.89,-672.92 730.89,-666.92 730.89,-660.92 730.89,-660.92 730.89,-495.92 730.89,-495.92 730.89,-489.92 736.89,-483.92 742.89,-483.92"/>
<text text-anchor="start" x="795.89" y="-652.52" font-family="Helvetica,sans-Serif" font-weight="bold" font-size="13.00">msgs</text>
<polyline fill="none" stroke="black" points="730.89,-642.92 898.89,-642.92 "/>
<text text-anchor="start" x="737.89" y="-628.82" font-family="Helvetica,sans-Serif" font-size="12.00">log_seq* </text>
<text text-anchor="start" x="792.89" y="-628.82" font-family="Helvetica,sans-Serif" font-weight="bold" font-size="12.00">integer</text>
<text text-anchor="start" x="737.89" y="-611.82" font-family="Helvetica,sans-Serif" font-size="12.00">msg_ref_id </text>
<text text-anchor="start" x="806.89" y="-611.82" font-family="Helvetica,sans-Serif" font-weight="bold" font-size="12.00">integer</text>
<text text-anchor="start" x="737.89" y="-594.82" font-family="Helvetica,sans-Serif" font-size="12.00">feed_ref_id </text>
<text text-anchor="start" x="807.89" y="-594.82" font-family="Helvetica,sans-Serif" font-weight="bold" font-size="12.00">integer</text>
<text text-anchor="start" x="737.89" y="-577.82" font-family="Helvetica,sans-Serif" font-size="12.00">feed_seq </text>
<text text-anchor="start" x="795.89" y="-577.82" font-family="Helvetica,sans-Serif" font-weight="bold" font-size="12.00">integer</text>
<text text-anchor="start" x="737.89" y="-560.82" font-family="Helvetica,sans-Serif" font-size="12.00">timestamp_received </text>
<text text-anchor="start" x="863.89" y="-560.82" font-family="Helvetica,sans-Serif" font-weight="bold" font-size="12.00">real</text>
<text text-anchor="start" x="737.89" y="-543.82" font-family="Helvetica,sans-Serif" font-size="12.00">timestamp_asserted </text>
<text text-anchor="start" x="864.89" y="-543.82" font-family="Helvetica,sans-Serif" font-weight="bold" font-size="12.00">real</text>
<text text-anchor="start" x="737.89" y="-526.82" font-family="Helvetica,sans-Serif" font-size="12.00">content_type </text>
<text text-anchor="start" x="819.89" y="-526.82" font-family="Helvetica,sans-Serif" font-weight="bold" font-size="12.00">text</text>
<text text-anchor="start" x="737.89" y="-509.82" font-family="Helvetica,sans-Serif" font-size="12.00">is_encrypted </text>
<text text-anchor="start" x="817.89" y="-509.82" font-family="Helvetica,sans-Serif" font-weight="bold" font-size="12.00">boolean</text>
<text text-anchor="start" x="737.89" y="-492.82" font-family="Helvetica,sans-Serif" font-size="12.00">is_decrypted </text>
<text text-anchor="start" x="817.89" y="-492.82" font-family="Helvetica,sans-Serif" font-weight="bold" font-size="12.00">boolean</text>
</g>
<!-- msg_refs -->
<g id="node3" class="node">
<title>msg_refs</title>
<path fill="none" stroke="black" d="M747.33,-808.59C747.33,-808.59 867.33,-808.59 867.33,-808.59 873.33,-808.59 879.33,-814.59 879.33,-820.59 879.33,-820.59 879.33,-866.59 879.33,-866.59 879.33,-872.59 873.33,-878.59 867.33,-878.59 867.33,-878.59 747.33,-878.59 747.33,-878.59 741.33,-878.59 735.33,-872.59 735.33,-866.59 735.33,-866.59 735.33,-820.59 735.33,-820.59 735.33,-814.59 741.33,-808.59 747.33,-808.59"/>
<text text-anchor="start" x="774.33" y="-858.19" font-family="Helvetica,sans-Serif" font-weight="bold" font-size="13.00">msg_refs</text>
<polyline fill="none" stroke="black" points="735.33,-848.59 879.33,-848.59 "/>
<text text-anchor="start" x="742.33" y="-834.99" font-family="Helvetica,sans-Serif" font-size="12.00">id* </text>
<text text-anchor="start" x="763.33" y="-834.99" font-family="Helvetica,sans-Serif" font-weight="bold" font-size="12.00">integer</text>
<text text-anchor="start" x="742.33" y="-817.99" font-family="Helvetica,sans-Serif" font-size="12.00">msg_ref </text>
<text text-anchor="start" x="794.33" y="-817.99" font-family="Helvetica,sans-Serif" font-weight="bold" font-size="12.00">text</text>
</g>
<!-- msgs&#45;&gt;msg_refs -->
<g id="edge2" class="edge">
<title>msgs&#45;&gt;msg_refs</title>
<path fill="none" stroke="black" stroke-width="0.9" d="M812.19,-673.03C810.96,-716.36 809.55,-765.6 808.57,-799.99"/>
<polygon fill="black" stroke="black" stroke-width="0.9" points="805.76,-800.33 808.33,-808.4 811.36,-800.49 805.76,-800.33"/>
</g>
<!-- feed_refs -->
<g id="node5" class="node">
<title>feed_refs</title>
<path fill="none" stroke="black" d="M970.33,-498.78C970.33,-498.78 1090.33,-498.78 1090.33,-498.78 1096.33,-498.78 1102.33,-504.78 1102.33,-510.78 1102.33,-510.78 1102.33,-556.78 1102.33,-556.78 1102.33,-562.78 1096.33,-568.78 1090.33,-568.78 1090.33,-568.78 970.33,-568.78 970.33,-568.78 964.33,-568.78 958.33,-562.78 958.33,-556.78 958.33,-556.78 958.33,-510.78 958.33,-510.78 958.33,-504.78 964.33,-498.78 970.33,-498.78"/>
<text text-anchor="start" x="995.33" y="-548.38" font-family="Helvetica,sans-Serif" font-weight="bold" font-size="13.00">feed_refs</text>
<polyline fill="none" stroke="black" points="958.33,-538.78 1102.33,-538.78 "/>
<text text-anchor="start" x="965.33" y="-525.18" font-family="Helvetica,sans-Serif" font-size="12.00">id* </text>
<text text-anchor="start" x="986.33" y="-525.18" font-family="Helvetica,sans-Serif" font-weight="bold" font-size="12.00">integer</text>
<text text-anchor="start" x="965.33" y="-508.18" font-family="Helvetica,sans-Serif" font-size="12.00">feed_ref </text>
<text text-anchor="start" x="1019.33" y="-508.18" font-family="Helvetica,sans-Serif" font-weight="bold" font-size="12.00">text</text>
</g>
<!-- msgs&#45;&gt;feed_refs -->
<g id="edge1" class="edge">
<title>msgs&#45;&gt;feed_refs</title>
<path fill="none" stroke="black" stroke-width="0.9" d="M899.11,-560.97C915.84,-557.5 933.37,-553.87 949.97,-550.43"/>
<polygon fill="black" stroke="black" stroke-width="0.9" points="950.78,-553.12 958.04,-548.76 949.64,-547.64 950.78,-553.12"/>
</g>
<!-- msg_links -->
<g id="node4" class="node">
<title>msg_links</title>
<path fill="none" stroke="black" d="M569.2,-263.51C569.2,-263.51 738.2,-263.51 738.2,-263.51 744.2,-263.51 750.2,-269.51 750.2,-275.51 750.2,-275.51 750.2,-338.51 750.2,-338.51 750.2,-344.51 744.2,-350.51 738.2,-350.51 738.2,-350.51 569.2,-350.51 569.2,-350.51 563.2,-350.51 557.2,-344.51 557.2,-338.51 557.2,-338.51 557.2,-275.51 557.2,-275.51 557.2,-269.51 563.2,-263.51 569.2,-263.51"/>
<text text-anchor="start" x="617.7" y="-330.11" font-family="Helvetica,sans-Serif" font-weight="bold" font-size="13.00">msg_links</text>
<polyline fill="none" stroke="black" points="557.2,-320.51 750.2,-320.51 "/>
<text text-anchor="start" x="564.7" y="-306.41" font-family="Helvetica,sans-Serif" font-size="12.00">id* </text>
<text text-anchor="start" x="585.7" y="-306.41" font-family="Helvetica,sans-Serif" font-weight="bold" font-size="12.00">integer</text>
<text text-anchor="start" x="564.7" y="-289.41" font-family="Helvetica,sans-Serif" font-size="12.00">link_from_msg_ref_id </text>
<text text-anchor="start" x="694.7" y="-289.41" font-family="Helvetica,sans-Serif" font-weight="bold" font-size="12.00">integer</text>
<text text-anchor="start" x="564.7" y="-272.41" font-family="Helvetica,sans-Serif" font-size="12.00">link_to_msg_ref_id </text>
<text text-anchor="start" x="677.7" y="-272.41" font-family="Helvetica,sans-Serif" font-weight="bold" font-size="12.00">integer</text>
</g>
<!-- msg_links&#45;&gt;msg_refs -->
<g id="edge3" class="edge">
<title>msg_links&#45;&gt;msg_refs</title>
<path fill="none" stroke="black" stroke-width="0.9" d="M658.89,-350.53C668.02,-420.48 689.66,-561.69 727.69,-676.12 742.37,-720.29 765.87,-767.98 783.54,-801.13"/>
<polygon fill="black" stroke="black" stroke-width="0.9" points="781.19,-802.67 787.45,-808.39 786.12,-800.02 781.19,-802.67"/>
</g>
<!-- msg_links&#45;&gt;msg_refs -->
<g id="edge4" class="edge">
<title>msg_links&#45;&gt;msg_refs</title>
<path fill="none" stroke="black" stroke-width="0.9" d="M658.89,-350.53C668.02,-420.48 689.66,-561.69 727.69,-676.12 742.37,-720.29 765.87,-767.98 783.54,-801.13"/>
<polygon fill="black" stroke="black" stroke-width="0.9" points="781.19,-802.67 787.45,-808.39 786.12,-800.02 781.19,-802.67"/>
</g>
<!-- feed_links -->
<g id="node6" class="node">
<title>feed_links</title>
<path fill="none" stroke="black" d="M955.4,-829.1C955.4,-829.1 1124.4,-829.1 1124.4,-829.1 1130.4,-829.1 1136.4,-835.1 1136.4,-841.1 1136.4,-841.1 1136.4,-904.1 1136.4,-904.1 1136.4,-910.1 1130.4,-916.1 1124.4,-916.1 1124.4,-916.1 955.4,-916.1 955.4,-916.1 949.4,-916.1 943.4,-910.1 943.4,-904.1 943.4,-904.1 943.4,-841.1 943.4,-841.1 943.4,-835.1 949.4,-829.1 955.4,-829.1"/>
<text text-anchor="start" x="1002.9" y="-895.7" font-family="Helvetica,sans-Serif" font-weight="bold" font-size="13.00">feed_links</text>
<polyline fill="none" stroke="black" points="943.4,-886.1 1136.4,-886.1 "/>
<text text-anchor="start" x="950.9" y="-872" font-family="Helvetica,sans-Serif" font-size="12.00">id* </text>
<text text-anchor="start" x="971.9" y="-872" font-family="Helvetica,sans-Serif" font-weight="bold" font-size="12.00">integer</text>
<text text-anchor="start" x="950.9" y="-855" font-family="Helvetica,sans-Serif" font-size="12.00">link_from_msg_ref_id </text>
<text text-anchor="start" x="1080.9" y="-855" font-family="Helvetica,sans-Serif" font-weight="bold" font-size="12.00">integer</text>
<text text-anchor="start" x="950.9" y="-838" font-family="Helvetica,sans-Serif" font-size="12.00">link_to_feed_ref_id </text>
<text text-anchor="start" x="1065.9" y="-838" font-family="Helvetica,sans-Serif" font-weight="bold" font-size="12.00">integer</text>
</g>
<!-- feed_links&#45;&gt;msg_refs -->
<g id="edge6" class="edge">
<title>feed_links&#45;&gt;msg_refs</title>
<path fill="none" stroke="black" stroke-width="0.9" d="M943.29,-860.55C924.78,-858.24 905.59,-855.85 887.67,-853.61"/>
<polygon fill="black" stroke="black" stroke-width="0.9" points="887.81,-850.81 879.53,-852.6 887.12,-856.36 887.81,-850.81"/>
</g>
<!-- feed_links&#45;&gt;feed_refs -->
<g id="edge5" class="edge">
<title>feed_links&#45;&gt;feed_refs</title>
<path fill="none" stroke="black" stroke-width="0.9" d="M1038.67,-829C1036.83,-763.87 1033.38,-641.9 1031.55,-576.99"/>
<polygon fill="black" stroke="black" stroke-width="0.9" points="1034.35,-576.91 1031.32,-568.99 1028.75,-577.06 1034.35,-576.91"/>
</g>
<!-- blob_refs -->
<g id="node7" class="node">
<title>blob_refs</title>
<path fill="none" stroke="black" d="M12.49,-660.32C12.49,-660.32 132.49,-660.32 132.49,-660.32 138.49,-660.32 144.49,-666.32 144.49,-672.32 144.49,-672.32 144.49,-718.32 144.49,-718.32 144.49,-724.32 138.49,-730.32 132.49,-730.32 132.49,-730.32 12.49,-730.32 12.49,-730.32 6.49,-730.32 0.49,-724.32 0.49,-718.32 0.49,-718.32 0.49,-672.32 0.49,-672.32 0.49,-666.32 6.49,-660.32 12.49,-660.32"/>
<text text-anchor="start" x="38.49" y="-709.92" font-family="Helvetica,sans-Serif" font-weight="bold" font-size="13.00">blob_refs</text>
<polyline fill="none" stroke="black" points="0.49,-700.32 144.49,-700.32 "/>
<text text-anchor="start" x="7.49" y="-686.72" font-family="Helvetica,sans-Serif" font-size="12.00">id* </text>
<text text-anchor="start" x="28.49" y="-686.72" font-family="Helvetica,sans-Serif" font-weight="bold" font-size="12.00">integer</text>
<text text-anchor="start" x="7.49" y="-669.72" font-family="Helvetica,sans-Serif" font-size="12.00">blob_ref </text>
<text text-anchor="start" x="59.49" y="-669.72" font-family="Helvetica,sans-Serif" font-weight="bold" font-size="12.00">text</text>
</g>
<!-- blob_links -->
<g id="node8" class="node">
<title>blob_links</title>
<path fill="none" stroke="black" d="M216.62,-823.25C216.62,-823.25 385.62,-823.25 385.62,-823.25 391.62,-823.25 397.62,-829.25 397.62,-835.25 397.62,-835.25 397.62,-898.25 397.62,-898.25 397.62,-904.25 391.62,-910.25 385.62,-910.25 385.62,-910.25 216.62,-910.25 216.62,-910.25 210.62,-910.25 204.62,-904.25 204.62,-898.25 204.62,-898.25 204.62,-835.25 204.62,-835.25 204.62,-829.25 210.62,-823.25 216.62,-823.25"/>
<text text-anchor="start" x="265.12" y="-889.85" font-family="Helvetica,sans-Serif" font-weight="bold" font-size="13.00">blob_links</text>
<polyline fill="none" stroke="black" points="204.62,-880.25 397.62,-880.25 "/>
<text text-anchor="start" x="212.12" y="-866.15" font-family="Helvetica,sans-Serif" font-size="12.00">id* </text>
<text text-anchor="start" x="233.12" y="-866.15" font-family="Helvetica,sans-Serif" font-weight="bold" font-size="12.00">integer</text>
<text text-anchor="start" x="212.12" y="-849.15" font-family="Helvetica,sans-Serif" font-size="12.00">link_from_msg_ref_id </text>
<text text-anchor="start" x="342.12" y="-849.15" font-family="Helvetica,sans-Serif" font-weight="bold" font-size="12.00">integer</text>
<text text-anchor="start" x="212.12" y="-832.15" font-family="Helvetica,sans-Serif" font-size="12.00">link_to_blob_ref_id </text>
<text text-anchor="start" x="325.12" y="-832.15" font-family="Helvetica,sans-Serif" font-weight="bold" font-size="12.00">integer</text>
</g>
<!-- blob_links&#45;&gt;msg_refs -->
<g id="edge8" class="edge">
<title>blob_links&#45;&gt;msg_refs</title>
<path fill="none" stroke="black" stroke-width="0.9" d="M397.83,-862.33C493.28,-857.96 637.54,-851.36 726.9,-847.27"/>
<polygon fill="black" stroke="black" stroke-width="0.9" points="727.25,-850.06 735.11,-846.89 726.99,-844.46 727.25,-850.06"/>
</g>
<!-- blob_links&#45;&gt;blob_refs -->
<g id="edge7" class="edge">
<title>blob_links&#45;&gt;blob_refs</title>
<path fill="none" stroke="black" stroke-width="0.9" d="M242.84,-823.05C206.84,-796.06 161,-761.69 125.94,-735.4"/>
<polygon fill="black" stroke="black" stroke-width="0.9" points="127.61,-733.15 119.53,-730.59 124.25,-737.63 127.61,-733.15"/>
</g>
<!-- contacts -->
<g id="node9" class="node">
<title>contacts</title>
<path fill="none" stroke="black" d="M1329.06,-283.06C1329.06,-283.06 1489.06,-283.06 1489.06,-283.06 1495.06,-283.06 1501.06,-289.06 1501.06,-295.06 1501.06,-295.06 1501.06,-392.06 1501.06,-392.06 1501.06,-398.06 1495.06,-404.06 1489.06,-404.06 1489.06,-404.06 1329.06,-404.06 1329.06,-404.06 1323.06,-404.06 1317.06,-398.06 1317.06,-392.06 1317.06,-392.06 1317.06,-295.06 1317.06,-295.06 1317.06,-289.06 1323.06,-283.06 1329.06,-283.06"/>
<text text-anchor="start" x="1378.06" y="-383.66" font-family="Helvetica,sans-Serif" font-weight="bold" font-size="13.00">contacts</text>
<polyline fill="none" stroke="black" points="1317.06,-374.06 1501.06,-374.06 "/>
<text text-anchor="start" x="1324.06" y="-359.96" font-family="Helvetica,sans-Serif" font-size="12.00">id* </text>
<text text-anchor="start" x="1345.06" y="-359.96" font-family="Helvetica,sans-Serif" font-weight="bold" font-size="12.00">integer</text>
<text text-anchor="start" x="1324.06" y="-342.96" font-family="Helvetica,sans-Serif" font-size="12.00">feed_ref_id </text>
<text text-anchor="start" x="1394.06" y="-342.96" font-family="Helvetica,sans-Serif" font-weight="bold" font-size="12.00">integer</text>
<text text-anchor="start" x="1324.06" y="-325.96" font-family="Helvetica,sans-Serif" font-size="12.00">contact_feed_ref_id </text>
<text text-anchor="start" x="1445.06" y="-325.96" font-family="Helvetica,sans-Serif" font-weight="bold" font-size="12.00">integer</text>
<text text-anchor="start" x="1324.06" y="-308.96" font-family="Helvetica,sans-Serif" font-size="12.00">is_decrypted </text>
<text text-anchor="start" x="1404.06" y="-308.96" font-family="Helvetica,sans-Serif" font-weight="bold" font-size="12.00">boolean</text>
<text text-anchor="start" x="1324.06" y="-291.96" font-family="Helvetica,sans-Serif" font-size="12.00">state </text>
<text text-anchor="start" x="1358.06" y="-291.96" font-family="Helvetica,sans-Serif" font-weight="bold" font-size="12.00">integer</text>
</g>
<!-- contacts&#45;&gt;feed_refs -->
<g id="edge9" class="edge">
<title>contacts&#45;&gt;feed_refs</title>
<path fill="none" stroke="black" stroke-width="0.9" d="M1316.9,-389.85C1252.72,-422.08 1168.12,-464.57 1107.5,-495.02"/>
<polygon fill="black" stroke="black" stroke-width="0.9" points="1106.12,-492.58 1100.23,-498.67 1108.63,-497.58 1106.12,-492.58"/>
</g>
<!-- contacts&#45;&gt;feed_refs -->
<g id="edge10" class="edge">
<title>contacts&#45;&gt;feed_refs</title>
<path fill="none" stroke="black" stroke-width="0.9" d="M1316.9,-389.85C1252.72,-422.08 1168.12,-464.57 1107.5,-495.02"/>
<polygon fill="black" stroke="black" stroke-width="0.9" points="1106.12,-492.58 1100.23,-498.67 1108.63,-497.58 1106.12,-492.58"/>
</g>
<!-- about_feeds -->
<g id="node10" class="node">
<title>about_feeds</title>
<path fill="none" stroke="black" d="M961.1,-0.17C961.1,-0.17 1131.1,-0.17 1131.1,-0.17 1137.1,-0.17 1143.1,-6.17 1143.1,-12.17 1143.1,-12.17 1143.1,-109.17 1143.1,-109.17 1143.1,-115.17 1137.1,-121.17 1131.1,-121.17 1131.1,-121.17 961.1,-121.17 961.1,-121.17 955.1,-121.17 949.1,-115.17 949.1,-109.17 949.1,-109.17 949.1,-12.17 949.1,-12.17 949.1,-6.17 955.1,-0.17 961.1,-0.17"/>
<text text-anchor="start" x="1001.1" y="-100.77" font-family="Helvetica,sans-Serif" font-weight="bold" font-size="13.00">about_feeds</text>
<polyline fill="none" stroke="black" points="949.1,-91.17 1143.1,-91.17 "/>
<text text-anchor="start" x="956.1" y="-77.07" font-family="Helvetica,sans-Serif" font-size="12.00">id* </text>
<text text-anchor="start" x="977.1" y="-77.07" font-family="Helvetica,sans-Serif" font-weight="bold" font-size="12.00">integer</text>
<text text-anchor="start" x="956.1" y="-60.07" font-family="Helvetica,sans-Serif" font-size="12.00">feed_seq </text>
<text text-anchor="start" x="1014.1" y="-60.07" font-family="Helvetica,sans-Serif" font-weight="bold" font-size="12.00">integer</text>
<text text-anchor="start" x="956.1" y="-43.07" font-family="Helvetica,sans-Serif" font-size="12.00">link_from_feed_ref_id </text>
<text text-anchor="start" x="1087.1" y="-43.07" font-family="Helvetica,sans-Serif" font-weight="bold" font-size="12.00">integer</text>
<text text-anchor="start" x="956.1" y="-26.07" font-family="Helvetica,sans-Serif" font-size="12.00">link_to_feed_ref_id </text>
<text text-anchor="start" x="1071.1" y="-26.07" font-family="Helvetica,sans-Serif" font-weight="bold" font-size="12.00">integer</text>
<text text-anchor="start" x="956.1" y="-9.07" font-family="Helvetica,sans-Serif" font-size="12.00">content </text>
<text text-anchor="start" x="1006.1" y="-9.07" font-family="Helvetica,sans-Serif" font-weight="bold" font-size="12.00">json</text>
</g>
<!-- about_feeds&#45;&gt;feed_refs -->
<g id="edge11" class="edge">
<title>about_feeds&#45;&gt;feed_refs</title>
<path fill="none" stroke="black" stroke-width="0.9" d="M1044.07,-121.55C1040.84,-218.65 1034.58,-406.2 1031.76,-490.68"/>
<polygon fill="black" stroke="black" stroke-width="0.9" points="1028.96,-490.68 1031.5,-498.77 1034.56,-490.87 1028.96,-490.68"/>
</g>
<!-- about_feeds&#45;&gt;feed_refs -->
<g id="edge12" class="edge">
<title>about_feeds&#45;&gt;feed_refs</title>
<path fill="none" stroke="black" stroke-width="0.9" d="M1044.07,-121.55C1040.84,-218.65 1034.58,-406.2 1031.76,-490.68"/>
<polygon fill="black" stroke="black" stroke-width="0.9" points="1028.96,-490.68 1031.5,-498.77 1034.56,-490.87 1028.96,-490.68"/>
</g>
<!-- about_msgs -->
<g id="node11" class="node">
<title>about_msgs</title>
<path fill="none" stroke="black" d="M1129.96,-675.09C1129.96,-675.09 1299.96,-675.09 1299.96,-675.09 1305.96,-675.09 1311.96,-681.09 1311.96,-687.09 1311.96,-687.09 1311.96,-784.09 1311.96,-784.09 1311.96,-790.09 1305.96,-796.09 1299.96,-796.09 1299.96,-796.09 1129.96,-796.09 1129.96,-796.09 1123.96,-796.09 1117.96,-790.09 1117.96,-784.09 1117.96,-784.09 1117.96,-687.09 1117.96,-687.09 1117.96,-681.09 1123.96,-675.09 1129.96,-675.09"/>
<text text-anchor="start" x="1171.96" y="-775.69" font-family="Helvetica,sans-Serif" font-weight="bold" font-size="13.00">about_msgs</text>
<polyline fill="none" stroke="black" points="1117.96,-766.09 1311.96,-766.09 "/>
<text text-anchor="start" x="1124.96" y="-751.99" font-family="Helvetica,sans-Serif" font-size="12.00">id* </text>
<text text-anchor="start" x="1145.96" y="-751.99" font-family="Helvetica,sans-Serif" font-weight="bold" font-size="12.00">integer</text>
<text text-anchor="start" x="1124.96" y="-734.99" font-family="Helvetica,sans-Serif" font-size="12.00">feed_seq </text>
<text text-anchor="start" x="1182.96" y="-734.99" font-family="Helvetica,sans-Serif" font-weight="bold" font-size="12.00">integer</text>
<text text-anchor="start" x="1124.96" y="-717.99" font-family="Helvetica,sans-Serif" font-size="12.00">link_from_feed_ref_id </text>
<text text-anchor="start" x="1255.96" y="-717.99" font-family="Helvetica,sans-Serif" font-weight="bold" font-size="12.00">integer</text>
<text text-anchor="start" x="1124.96" y="-700.99" font-family="Helvetica,sans-Serif" font-size="12.00">link_to_msg_ref_id </text>
<text text-anchor="start" x="1237.96" y="-700.99" font-family="Helvetica,sans-Serif" font-weight="bold" font-size="12.00">integer</text>
<text text-anchor="start" x="1124.96" y="-683.99" font-family="Helvetica,sans-Serif" font-size="12.00">content </text>
<text text-anchor="start" x="1174.96" y="-683.99" font-family="Helvetica,sans-Serif" font-weight="bold" font-size="12.00">json</text>
</g>
<!-- about_msgs&#45;&gt;msg_refs -->
<g id="edge13" class="edge">
<title>about_msgs&#45;&gt;msg_refs</title>
<path fill="none" stroke="black" stroke-width="0.9" d="M1117.84,-761.32C1047.47,-779.97 953.46,-804.87 887.38,-822.38"/>
<polygon fill="black" stroke="black" stroke-width="0.9" points="886.48,-819.72 879.46,-824.48 887.91,-825.14 886.48,-819.72"/>
</g>
<!-- about_msgs&#45;&gt;feed_refs -->
<g id="edge14" class="edge">
<title>about_msgs&#45;&gt;feed_refs</title>
<path fill="none" stroke="black" stroke-width="0.9" d="M1159.56,-675.04C1130.01,-642.74 1094.42,-603.83 1068.07,-575.04"/>
<polygon fill="black" stroke="black" stroke-width="0.9" points="1070.06,-573.07 1062.6,-569.05 1065.93,-576.85 1070.06,-573.07"/>
</g>
<!-- votes -->
<g id="node12" class="node">
<title>votes</title>
<path fill="none" stroke="black" d="M416.02,-561.35C416.02,-561.35 586.02,-561.35 586.02,-561.35 592.02,-561.35 598.02,-567.35 598.02,-573.35 598.02,-573.35 598.02,-670.35 598.02,-670.35 598.02,-676.35 592.02,-682.35 586.02,-682.35 586.02,-682.35 416.02,-682.35 416.02,-682.35 410.02,-682.35 404.02,-676.35 404.02,-670.35 404.02,-670.35 404.02,-573.35 404.02,-573.35 404.02,-567.35 410.02,-561.35 416.02,-561.35"/>
<text text-anchor="start" x="481.02" y="-661.95" font-family="Helvetica,sans-Serif" font-weight="bold" font-size="13.00">votes</text>
<polyline fill="none" stroke="black" points="404.02,-652.35 598.02,-652.35 "/>
<text text-anchor="start" x="411.02" y="-638.25" font-family="Helvetica,sans-Serif" font-size="12.00">id* </text>
<text text-anchor="start" x="432.02" y="-638.25" font-family="Helvetica,sans-Serif" font-weight="bold" font-size="12.00">integer</text>
<text text-anchor="start" x="411.02" y="-621.25" font-family="Helvetica,sans-Serif" font-size="12.00">feed_seq </text>
<text text-anchor="start" x="469.02" y="-621.25" font-family="Helvetica,sans-Serif" font-weight="bold" font-size="12.00">integer</text>
<text text-anchor="start" x="411.02" y="-604.25" font-family="Helvetica,sans-Serif" font-size="12.00">link_from_feed_ref_id </text>
<text text-anchor="start" x="542.02" y="-604.25" font-family="Helvetica,sans-Serif" font-weight="bold" font-size="12.00">integer</text>
<text text-anchor="start" x="411.02" y="-587.25" font-family="Helvetica,sans-Serif" font-size="12.00">link_to_msg_ref_id </text>
<text text-anchor="start" x="524.02" y="-587.25" font-family="Helvetica,sans-Serif" font-weight="bold" font-size="12.00">integer</text>
<text text-anchor="start" x="411.02" y="-570.25" font-family="Helvetica,sans-Serif" font-size="12.00">value </text>
<text text-anchor="start" x="448.02" y="-570.25" font-family="Helvetica,sans-Serif" font-weight="bold" font-size="12.00">integer</text>
</g>
<!-- votes&#45;&gt;msg_refs -->
<g id="edge15" class="edge">
<title>votes&#45;&gt;msg_refs</title>
<path fill="none" stroke="black" stroke-width="0.9" d="M584.72,-682.44C637.9,-720.94 705.26,-769.7 751.88,-803.45"/>
<polygon fill="black" stroke="black" stroke-width="0.9" points="750.48,-805.89 758.6,-808.32 753.77,-801.36 750.48,-805.89"/>
</g>
<!-- votes&#45;&gt;feed_refs -->
<g id="edge16" class="edge">
<title>votes&#45;&gt;feed_refs</title>
<path fill="none" stroke="black" stroke-width="0.9" d="M574.57,-561.31C616.62,-530.67 671.97,-496.65 727.69,-480.72 802.21,-459.41 826.06,-465.61 902.09,-480.72 918.64,-484.01 935.73,-489.47 951.83,-495.67"/>
<polygon fill="black" stroke="black" stroke-width="0.9" points="951.18,-498.42 959.65,-498.76 953.24,-493.21 951.18,-498.42"/>
</g>
<!-- posts -->
<g id="node13" class="node">
<title>posts</title>
<path fill="none" stroke="black" d="M522.14,-1137.56C522.14,-1137.56 660.14,-1137.56 660.14,-1137.56 666.14,-1137.56 672.14,-1143.56 672.14,-1149.56 672.14,-1149.56 672.14,-1212.56 672.14,-1212.56 672.14,-1218.56 666.14,-1224.56 660.14,-1224.56 660.14,-1224.56 522.14,-1224.56 522.14,-1224.56 516.14,-1224.56 510.14,-1218.56 510.14,-1212.56 510.14,-1212.56 510.14,-1149.56 510.14,-1149.56 510.14,-1143.56 516.14,-1137.56 522.14,-1137.56"/>
<text text-anchor="start" x="571.14" y="-1204.16" font-family="Helvetica,sans-Serif" font-weight="bold" font-size="13.00">posts</text>
<polyline fill="none" stroke="black" points="510.14,-1194.56 672.14,-1194.56 "/>
<text text-anchor="start" x="517.14" y="-1180.46" font-family="Helvetica,sans-Serif" font-size="12.00">msg_ref_id </text>
<text text-anchor="start" x="586.14" y="-1180.46" font-family="Helvetica,sans-Serif" font-weight="bold" font-size="12.00">integer</text>
<text text-anchor="start" x="517.14" y="-1163.46" font-family="Helvetica,sans-Serif" font-size="12.00">root_msg_ref_id </text>
<text text-anchor="start" x="616.14" y="-1163.46" font-family="Helvetica,sans-Serif" font-weight="bold" font-size="12.00">integer</text>
<text text-anchor="start" x="517.14" y="-1146.46" font-family="Helvetica,sans-Serif" font-size="12.00">fork_msg_ref_id </text>
<text text-anchor="start" x="616.14" y="-1146.46" font-family="Helvetica,sans-Serif" font-weight="bold" font-size="12.00">integer</text>
</g>
<!-- posts&#45;&gt;msg_refs -->
<g id="edge17" class="edge">
<title>posts&#45;&gt;msg_refs</title>
<path fill="none" stroke="black" stroke-width="0.9" d="M619.18,-1137.29C660.96,-1072.07 739.04,-950.2 780.25,-885.86"/>
<polygon fill="black" stroke="black" stroke-width="0.9" points="782.65,-887.31 784.61,-879.07 777.93,-884.29 782.65,-887.31"/>
</g>
<!-- posts&#45;&gt;msg_refs -->
<g id="edge18" class="edge">
<title>posts&#45;&gt;msg_refs</title>
<path fill="none" stroke="black" stroke-width="0.9" d="M619.18,-1137.29C660.96,-1072.07 739.04,-950.2 780.25,-885.86"/>
<polygon fill="black" stroke="black" stroke-width="0.9" points="782.65,-887.31 784.61,-879.07 777.93,-884.29 782.65,-887.31"/>
</g>
<!-- post_branches -->
<g id="node14" class="node">
<title>post_branches</title>
<path fill="none" stroke="black" d="M850.89,-1164.66C850.89,-1164.66 1019.89,-1164.66 1019.89,-1164.66 1025.89,-1164.66 1031.89,-1170.66 1031.89,-1176.66 1031.89,-1176.66 1031.89,-1239.66 1031.89,-1239.66 1031.89,-1245.66 1025.89,-1251.66 1019.89,-1251.66 1019.89,-1251.66 850.89,-1251.66 850.89,-1251.66 844.89,-1251.66 838.89,-1245.66 838.89,-1239.66 838.89,-1239.66 838.89,-1176.66 838.89,-1176.66 838.89,-1170.66 844.89,-1164.66 850.89,-1164.66"/>
<text text-anchor="start" x="882.39" y="-1231.26" font-family="Helvetica,sans-Serif" font-weight="bold" font-size="13.00">post_branches</text>
<polyline fill="none" stroke="black" points="838.89,-1221.66 1031.89,-1221.66 "/>
<text text-anchor="start" x="846.39" y="-1207.56" font-family="Helvetica,sans-Serif" font-size="12.00">id* </text>
<text text-anchor="start" x="867.39" y="-1207.56" font-family="Helvetica,sans-Serif" font-weight="bold" font-size="12.00">integer</text>
<text text-anchor="start" x="846.39" y="-1190.56" font-family="Helvetica,sans-Serif" font-size="12.00">link_from_msg_ref_id </text>
<text text-anchor="start" x="976.39" y="-1190.56" font-family="Helvetica,sans-Serif" font-weight="bold" font-size="12.00">integer</text>
<text text-anchor="start" x="846.39" y="-1173.56" font-family="Helvetica,sans-Serif" font-size="12.00">link_to_msg_ref_id </text>
<text text-anchor="start" x="959.39" y="-1173.56" font-family="Helvetica,sans-Serif" font-weight="bold" font-size="12.00">integer</text>
</g>
<!-- post_branches&#45;&gt;msg_refs -->
<g id="edge19" class="edge">
<title>post_branches&#45;&gt;msg_refs</title>
<path fill="none" stroke="black" stroke-width="0.9" d="M920.07,-1164.54C895.36,-1094.21 847.01,-956.55 822.44,-886.6"/>
<polygon fill="black" stroke="black" stroke-width="0.9" points="825,-885.44 819.71,-878.82 819.72,-887.3 825,-885.44"/>
</g>
<!-- post_branches&#45;&gt;msg_refs -->
<g id="edge20" class="edge">
<title>post_branches&#45;&gt;msg_refs</title>
<path fill="none" stroke="black" stroke-width="0.9" d="M920.07,-1164.54C895.36,-1094.21 847.01,-956.55 822.44,-886.6"/>
<polygon fill="black" stroke="black" stroke-width="0.9" points="825,-885.44 819.71,-878.82 819.72,-887.3 825,-885.44"/>
</g>
</g>
</svg>
